<svg width="714" height="714" viewBox="0 0 714 714" fill="none" xmlns="http://www.w3.org/2000/svg">
<rect width="714" height="714" fill="white"/>
<rect x="186.125" y="12.7675" width="442.492" height="577.725" rx="25" transform="rotate(11.6627 186.125 12.7675)" fill="#EF4444"/>
<rect x="62.5339" y="110.527" width="442.298" height="577.725" rx="25" transform="rotate(-13.3099 62.5339 110.527)" fill="#FCF8D6"/>
<path d="M145.033 277.817C145.033 314.553 115.253 344.334 78.5167 344.334C41.7805 344.334 12 314.553 12 277.817C12 241.081 41.7805 211.3 78.5167 211.3C115.253 211.3 145.033 241.081 145.033 277.817Z" fill="#EF4444"/>
<path d="M359.933 630.867C359.933 656.3 339.316 676.917 313.883 676.917C288.451 676.917 267.833 656.3 267.833 630.867C267.833 605.434 288.451 584.817 313.883 584.817C339.316 584.817 359.933 605.434 359.933 630.867Z" fill="#EF4444"/>
<path d="M626 395.5C626 415.281 609.964 431.317 590.183 431.317C570.402 431.317 554.367 415.281 554.367 395.5C554.367 375.719 570.402 359.684 590.183 359.684C609.964 359.684 626 375.719 626 395.5Z" fill="#EF4444"/>
<g clip-path="url(#clip0_120:102)">
<path d="M226.868 195.269C226.995 194.122 228.299 193.549 229.405 193.205C246.77 187.772 264.328 181.16 281.687 175.72C265.137 169.457 245.857 172.412 230.531 181.326C217.226 189.065 206.327 201.511 202.376 216.333C198.425 231.154 202.178 248.217 213.374 258.703C219.95 245.798 231.181 235.839 244.81 230.83V230.83C238.757 218.801 233.381 208.928 227.327 196.894C227.071 196.383 226.807 195.838 226.868 195.269ZM221.877 236.41C217.321 239.473 213.429 243.854 212.098 249.16C204.357 232.358 207.452 211.137 219.679 197.18L219.737 197.165C224.596 207.685 231.943 219.058 236.803 229.578C231.645 231.443 226.427 233.347 221.877 236.41Z" fill="#EF4444"/>
<path d="M405.13 360.416C405.235 360.706 405.34 360.99 405.445 361.28C405.656 363.284 408.228 389.614 403.66 401.78C399.127 413.857 389.829 423.958 378.419 430.092C374.132 432.404 369.55 434.127 364.8 435.213C361.703 435.914 358.549 436.333 355.377 436.466C340.799 437.09 325.97 431.823 315.33 421.859C305.557 412.703 299.548 400.344 295.577 387.575C284.219 317.494 268.015 253.951 231.726 196.926L231.764 196.916C271.116 180.882 318.62 167.284 360.391 159.463C324.163 182.785 283.93 189.721 242.206 200.291C263.889 222.153 270.917 244.642 281.25 273.623C291.582 302.603 297.23 333.039 301.674 363.489C303.743 377.68 305.715 392.354 313.092 404.655C321.916 419.364 338.89 429.306 356.1 428.304C373.309 427.301 386.935 417.471 395.566 402.6C398.644 397.301 399.15 389.608 400.366 383.407C401.582 377.205 400.947 371.479 405.13 360.416Z" fill="#EF4444"/>
<path d="M432.731 488.864C428.646 492.449 423.659 494.827 418.662 496.984C396.304 506.584 372.476 512.325 348.201 513.963C343.69 514.268 339.072 514.419 334.727 513.19C330.382 511.961 322.698 506.716 325.43 501.459C330.439 493.169 338.073 486.769 347.128 483.27C350.037 482.154 353.115 481.333 355.7 479.613C358.285 477.892 360.388 474.968 360.037 471.892C359.933 471.037 359.672 470.208 359.267 469.448C357.613 466.212 353.92 463.754 353.105 460.104C352.237 456.215 354.88 452.525 356.778 449.011C357.227 448.153 357.554 447.236 357.748 446.287C358.5 442.812 357.907 438.514 355.39 436.704L355.379 436.486C358.551 436.353 361.705 435.934 364.803 435.233C369.553 434.147 374.134 432.424 378.421 430.112L378.485 430.227C377.253 432.947 378.839 436.979 381.14 439.716C381.849 440.581 382.689 441.33 383.631 441.937C387.033 444.028 391.163 445.9 392.356 449.702C393.648 453.816 390.83 458.474 391.946 462.52C392.028 462.815 392.131 463.105 392.252 463.386C393.493 466.227 396.764 467.709 399.869 467.907C402.975 468.105 406.047 467.276 409.122 466.788C419.216 465.213 429.537 467.211 438.289 472.435V472.435C443.193 476.222 436.808 485.284 432.731 488.864Z" fill="#EF4444"/>
<path d="M325.428 501.471C325.177 501.887 324.93 502.314 324.692 502.745L325.428 501.471Z" fill="white"/>
<path d="M365.186 216.937C370.843 257.562 382.803 297.034 396.359 335.848L396.229 335.883C366.663 283.704 353.737 219.065 360.452 159.449C360.146 177.951 362.635 198.621 365.186 216.937Z" fill="#EF4444"/>
<path d="M360.041 159.296L360.026 159.403C360.026 159.403 360.026 159.403 360.03 159.42L360.045 159.31C360.027 159.364 360.025 159.421 360.039 159.476C360.039 159.534 360.054 159.59 360.083 159.64C360.11 159.688 360.148 159.729 360.195 159.76C360.237 159.795 360.286 159.821 360.339 159.835L360.449 159.85C360.526 159.85 360.602 159.829 360.668 159.791L360.756 159.723C360.806 159.67 360.842 159.606 360.862 159.537V159.537L360.877 159.427C360.875 159.422 360.873 159.416 360.873 159.411L360.858 159.52C360.879 159.471 360.888 159.417 360.884 159.364C360.885 159.306 360.869 159.249 360.84 159.2C360.814 159.151 360.775 159.11 360.728 159.08C360.686 159.045 360.637 159.019 360.584 159.004L360.474 158.99C360.397 158.99 360.322 159.01 360.255 159.049L360.167 159.116C360.117 159.17 360.08 159.234 360.058 159.304L360.041 159.296Z" fill="white"/>
</g>
<defs>
<clipPath id="clip0_120:102">
<rect width="173.967" height="358.167" fill="white" transform="translate(189 190.026) rotate(-15)"/>
</clipPath>
</defs>
</svg>
