<svg width="614" height="466" viewBox="0 0 614 466" fill="none" xmlns="http://www.w3.org/2000/svg">
<path d="M133.033 66.817C133.033 103.553 103.253 133.334 66.5167 133.334C29.7805 133.334 0 103.553 0 66.817C0 30.0808 29.7805 0.300308 66.5167 0.300308C103.253 0.300308 133.033 30.0808 133.033 66.817Z" fill="#EF4444"/>
<path d="M347.933 419.867C347.933 445.3 327.316 465.917 301.883 465.917C276.451 465.917 255.833 445.3 255.833 419.867C255.833 394.434 276.451 373.817 301.883 373.817C327.316 373.817 347.933 394.434 347.933 419.867Z" fill="#EF4444"/>
<path d="M614 184.5C614 204.281 597.964 220.317 578.183 220.317C558.402 220.317 542.367 204.281 542.367 184.5C542.367 164.719 558.402 148.684 578.183 148.684C597.964 148.684 614 164.719 614 184.5Z" fill="#EF4444"/>
</svg>
