<svg width="261" height="391" viewBox="0 0 261 391" fill="none" xmlns="http://www.w3.org/2000/svg">
<g clip-path="url(#clip0_120:129)">
<path d="M37.8675 50.2688C37.9949 49.1219 39.2993 48.5487 40.405 48.2053C57.7699 42.7723 75.3275 36.1601 92.6875 30.7196C76.1367 24.4565 56.8569 27.4117 41.5308 36.3256C28.2262 44.0649 17.3274 56.5114 13.376 71.3326C9.42452 86.1538 13.1775 103.217 24.3742 113.703C30.9497 100.798 42.181 90.8392 55.8098 85.8299V85.8299C49.7565 73.8013 44.3815 63.9285 38.3267 51.8944C38.0714 51.3829 37.8072 50.8384 37.8675 50.2688ZM32.877 91.4095C28.3214 94.473 24.4293 98.8542 23.0976 104.16C15.3573 87.3578 18.4515 66.1368 30.6787 52.1803L30.7367 52.1648C35.5961 62.6851 42.9435 74.0578 47.803 84.5782C42.6452 86.443 37.4271 88.3475 32.877 91.4095Z" fill="#EF4444"/>
<path d="M216.13 215.416C216.235 215.706 216.34 215.99 216.445 216.28C216.656 218.284 219.228 244.614 214.66 256.78C210.127 268.857 200.829 278.958 189.419 285.092C185.132 287.404 180.55 289.127 175.8 290.213C172.703 290.914 169.549 291.333 166.377 291.466C151.799 292.09 136.97 286.823 126.33 276.859C116.557 267.703 110.548 255.344 106.577 242.575C95.2186 172.494 79.0145 108.951 42.7257 51.9263L42.7643 51.9159C82.1156 35.8815 129.62 22.2844 171.391 14.4626C135.163 37.7849 94.9295 44.7209 53.2062 55.2913C74.889 77.1534 81.9174 99.6421 92.2497 128.623C102.582 157.603 108.23 188.039 112.674 218.489C114.743 232.68 116.715 247.354 124.092 259.655C132.916 274.364 149.89 284.306 167.1 283.304C184.309 282.301 197.935 272.471 206.566 257.6C209.644 252.301 210.15 244.608 211.366 238.407C212.582 232.205 211.947 226.479 216.13 215.416Z" fill="#EF4444"/>
<path d="M243.731 343.864C239.646 347.449 234.659 349.827 229.662 351.984C207.304 361.584 183.476 367.325 159.201 368.963C154.69 369.268 150.072 369.419 145.727 368.19C141.382 366.961 133.698 361.716 136.43 356.459C141.439 348.169 149.073 341.769 158.128 338.27C161.037 337.154 164.115 336.333 166.7 334.613C169.285 332.892 171.388 329.968 171.037 326.892C170.933 326.037 170.672 325.208 170.267 324.448C168.613 321.212 164.92 318.754 164.105 315.104C163.237 311.215 165.88 307.525 167.778 304.011C168.227 303.153 168.554 302.236 168.748 301.287C169.5 297.812 168.907 293.514 166.39 291.704L166.379 291.486C169.551 291.353 172.705 290.934 175.803 290.233C180.553 289.147 185.134 287.424 189.421 285.112L189.485 285.227C188.253 287.947 189.839 291.979 192.14 294.716C192.849 295.581 193.689 296.33 194.631 296.937C198.033 299.028 202.163 300.9 203.356 304.702C204.648 308.816 201.83 313.474 202.946 317.52C203.028 317.815 203.131 318.105 203.252 318.386C204.493 321.227 207.764 322.709 210.869 322.907C213.975 323.105 217.047 322.276 220.122 321.788C230.216 320.213 240.537 322.211 249.289 327.435V327.435C254.193 331.222 247.808 340.284 243.731 343.864Z" fill="#EF4444"/>
<path d="M136.428 356.471C136.177 356.887 135.93 357.314 135.692 357.745L136.428 356.471Z" fill="white"/>
<path d="M176.186 71.9366C181.843 112.562 193.803 152.034 207.359 190.848L207.229 190.883C177.663 138.704 164.737 74.0651 171.452 14.4491C171.146 32.9508 173.635 53.6206 176.186 71.9366Z" fill="#EF4444"/>
<path d="M171.041 14.2965L171.026 14.4032C171.026 14.4032 171.026 14.4032 171.03 14.4197L171.045 14.3102C171.027 14.3636 171.025 14.4213 171.039 14.4758C171.039 14.5335 171.054 14.5903 171.083 14.6399C171.11 14.6882 171.148 14.7293 171.195 14.7595C171.237 14.795 171.286 14.8209 171.339 14.8352L171.449 14.8498C171.526 14.8496 171.602 14.8293 171.668 14.7909L171.756 14.7234C171.806 14.6704 171.842 14.6064 171.862 14.5367V14.5367L171.877 14.4272C171.875 14.4221 171.873 14.4165 171.873 14.4108L171.858 14.5203C171.879 14.4709 171.888 14.4173 171.884 14.3639C171.885 14.3061 171.869 14.2494 171.84 14.1998C171.814 14.151 171.775 14.1098 171.728 14.0802C171.686 14.0446 171.637 14.0188 171.584 14.0044L171.474 13.9899C171.397 13.9901 171.322 14.0104 171.255 14.0488L171.167 14.1163C171.117 14.17 171.08 14.234 171.058 14.3037L171.041 14.2965Z" fill="white"/>
</g>
<defs>
<clipPath id="clip0_120:129">
<rect width="173.967" height="358.167" fill="white" transform="translate(0 45.0259) rotate(-15)"/>
</clipPath>
</defs>
</svg>
