<svg id="Layer_1" data-name="Layer 1" xmlns="http://www.w3.org/2000/svg" viewBox="0 0 609 1259.59"><defs><style>.cls-1{fill:none;}.cls-2{fill:#ef4444;}.cls-3{fill:#fff;}</style></defs><title>logo</title><path class="cls-1" d="M748.77,833.08c0-.21,0-.42,0-.63" transform="translate(-172 -53.7)"/><path class="cls-1" d="M779.5,105.79a.65.65,0,0,1,0,.13" transform="translate(-172 -53.7)"/><path class="cls-1" d="M310.2,116.07l0,0" transform="translate(-172 -53.7)"/><path class="cls-2" d="M295.21,105.93c1.47-3.78,6.4-4.54,10.45-4.7,63.64-2.65,129-9.13,192.63-11.81C448,53.08,380.13,45.57,320.23,61.9c-52,14.18-100.13,46.54-126.92,93.29s-29.56,108.13-1.2,153.94a201.16,201.16,0,0,1,131.55-66.07h0c-9.57-46.37-18.8-84.8-28.37-131.19C294.89,109.9,294.49,107.81,295.21,105.93ZM241.06,241.14c-18.18,6.26-35.31,17.6-44.62,34.41-10.95-64.12,18.74-133.39,72.73-169.67l.21,0c6.9,40.16,21.44,85.48,28.34,125.64C278.59,233.16,259.22,234.88,241.06,241.14Z" transform="translate(-172 -53.7)"/><path class="cls-1" d="M498.83,89.8a6.58,6.58,0,0,0-.54-.38" transform="translate(-172 -53.7)"/><path class="cls-2" d="M748.44,829.23c.09,1.08.19,2.14.28,3.22-1.1,7-16.26,98.78-42.73,135.95-26.27,36.9-66.86,62.75-111,73.2a188.53,188.53,0,0,1-50.69,5,183.65,183.65,0,0,1-33-4.32c-49.86-11.15-95.23-42.54-122.18-86.07-24.75-40-33.87-87.45-35.73-134.44,25.09-248.4,27.87-479-43.17-705.74l.14,0c147.59-18.65,320.54-21.6,468.87-10.15C635.6,152.13,493.27,139.07,342.61,137c53.51,94,56.9,176.79,65.58,284.64s.2,216.38-12.36,323.86c-5.86,50.09-12.49,101.73,1.31,150.23,16.51,58,64.9,107.22,124,119.48s114.08-8.73,156.74-51.39c15.21-15.2,23.89-40.87,33.62-60.83S724.27,863,748.44,829.23Z" transform="translate(-172 -53.7)"/><path class="cls-1" d="M741,737.79q3.38,45.78,7.4,91.44c-29.45,22.38-40.09,34.71-49.78,54.59s-13.92,42-24.12,61.7c-27.69,53.59-94.36,82-153.43,69.72s-107.46-61.45-124-119.48c-13.8-48.5-7.17-100.14-1.31-150.23,12.56-107.48,21-216,12.36-323.86S396.12,231.05,342.61,137c150.66,2,293,15.1,436.6-31.15h.13l.11,0c-76.72,196.4-91.58,427.74-38.88,631.9Z" transform="translate(-172 -53.7)"/><path class="cls-1" d="M748.77,832.06c0-.11,0,0,0,.39" transform="translate(-172 -53.7)"/><path class="cls-2" d="M725.39,1290.68c-17.06,8.46-36.08,12-54.93,14.78A750.49,750.49,0,0,1,416.82,1299c-15.53-3.07-31.28-6.76-44.86-14.89s-34.81-32.94-20.81-48.31A153,153,0,0,1,441,1193.76c10.85-1.14,22-1.13,32.3-4.62s20.06-11.51,21.66-22.28a24.65,24.65,0,0,0-.39-9c-2.66-12.5-12.92-24.21-12.37-37.35.59-14,12.87-24.13,22.47-34.34a36.34,36.34,0,0,0,5.75-8.37c5.69-11.12,7.58-26.26.71-34.7l.16-.75a183.65,183.65,0,0,0,33,4.32,188.53,188.53,0,0,0,50.69-5l.11.45c-6.63,8.12-4.92,23.26.38,34.65a37.86,37.86,0,0,0,6.41,9.81c9.61,10.2,21.88,20.32,22.47,34.32.64,15.15-13.11,28.41-13,43.17a23.4,23.4,0,0,0,.25,3.22c1.62,10.78,11.34,18.79,21.66,22.29s21.46,3.48,32.3,4.62a152.91,152.91,0,0,1,93.51,45.73h0C772.22,1257.26,742.42,1282.23,725.39,1290.68Z" transform="translate(-172 -53.7)"/><path class="cls-3" d="M351.15,1235.84c-1.23,1.19-2.46,2.42-3.66,3.67Z" transform="translate(-172 -53.7)"/><path class="cls-1" d="M759.09,1239.85l-.08-.1" transform="translate(-172 -53.7)"/><path class="cls-1" d="M351.32,1235.65l-.17.19" transform="translate(-172 -53.7)"/><path class="cls-1" d="M611.51,1164l-.15,0" transform="translate(-172 -53.7)"/><path class="cls-1" d="M498.83,89.4l-.54,0" transform="translate(-172 -53.7)"/><path class="cls-1" d="M269.38,105.84s0,0,0,0" transform="translate(-172 -53.7)"/><path class="cls-1" d="M779.5,105.79l-.29.09" transform="translate(-172 -53.7)"/><path class="cls-1" d="M350.31,166.27c-1,0-2.05,0-3.09-.05" transform="translate(-172 -53.7)"/><path class="cls-1" d="M748.77,829l-.33.25" transform="translate(-172 -53.7)"/><path class="cls-1" d="M350.31,166.27a.17.17,0,0,0,0-.05" transform="translate(-172 -53.7)"/><path class="cls-2" d="M743.37,305.48c-17.68,143.15-13,288.12-2.33,432.31l-.47,0c-52.7-204.16-37.84-435.5,38.88-631.9h0C761.65,168.46,751.34,240.94,743.37,305.48Z" transform="translate(-172 -53.7)"/><path class="cls-3" d="M778.2,105v0l-.15.35h0v0s0,0,0,.06l.15-.36h0a1,1,0,0,0-.17.56,1.11,1.11,0,0,0,0,.6,1.2,1.2,0,0,0,.27.51,1.31,1.31,0,0,0,.42.39l.36.15a1.55,1.55,0,0,0,.8,0l.36-.15a1.61,1.61,0,0,0,.53-.54v0l.15-.36h0v0a.14.14,0,0,1,0-.06l-.15.36v0A1.18,1.18,0,0,0,781,106a1.11,1.11,0,0,0,0-.6,1.14,1.14,0,0,0-.27-.51,1.31,1.31,0,0,0-.42-.39l-.36-.15a1.55,1.55,0,0,0-.8,0l-.36.15a1.74,1.74,0,0,0-.54.54Z" transform="translate(-172 -53.7)"/></svg>