<svg id="Layer_1" data-name="Layer 1" xmlns="http://www.w3.org/2000/svg" viewBox="0 0 1207.83 934.01"><defs><style>.cls-1{font-size:240.89px;font-family:PlayfairDisplay-Bold, Playfair Display;font-weight:700;}.cls-1,.cls-4{fill:#ef4444;}.cls-2{letter-spacing:-0.01em;}.cls-3{fill:none;}.cls-5{fill:#fff;}</style></defs><title>logo2</title><text class="cls-1" transform="translate(566.99 271.61)"><tspan class="cls-2">T</tspan><tspan x="159.49" y="0">he </tspan><tspan x="0" y="289.06">High </tspan><tspan x="0" y="578.12">Ball</tspan></text><path class="cls-3" d="M578.77,664.93c0-.16,0-.31,0-.47" transform="translate(-106 -87)"/><path class="cls-3" d="M604,125.62a.38.38,0,0,1,0,.1" transform="translate(-106 -87)"/><path class="cls-3" d="M219.28,133.25a.06.06,0,0,1,0,0" transform="translate(-106 -87)"/><path class="cls-4" d="M207,125.73c1.2-2.8,5.24-3.37,8.56-3.49,52.16-2,105.72-6.76,157.9-8.75C332.2,86.54,276.61,81,227.5,93.08c-42.61,10.52-82.07,34.51-104,69.18s-24.23,80.18-1,114.15c27.34-27.88,66.78-45.77,107.83-49h0c-7.85-34.39-15.41-62.89-23.26-97.28A7.12,7.12,0,0,1,207,125.73ZM162.61,226c-14.9,4.64-29,13-36.58,25.52-9-47.55,15.37-98.91,59.62-125.82l.17,0c5.66,29.78,17.58,63.39,23.24,93.16C193.37,220.07,177.49,221.35,162.61,226Z" transform="translate(-106 -87)"/><path class="cls-3" d="M373.9,113.77l-.44-.28" transform="translate(-106 -87)"/><path class="cls-4" d="M578.5,662.07c.08.8.15,1.59.23,2.39-.9,5.17-13.32,73.24-35,100.81-21.54,27.36-54.81,46.53-91,54.28a170.43,170.43,0,0,1-41.55,3.74,165.89,165.89,0,0,1-27.08-3.21C343.23,811.82,306,788.54,284,756.26c-20.28-29.65-27.76-64.85-29.28-99.69,20.57-184.2,22.84-355.2-35.39-523.32l.12,0c121-13.83,262.74-16,384.33-7.53C486,160,369.35,150.3,245.85,148.79c43.86,69.72,46.64,131.1,53.75,211.07s.16,160.45-10.13,240.15c-4.8,37.14-10.24,75.43,1.07,111.4,13.54,43,53.2,79.5,101.62,88.59s93.51-6.47,128.48-38.1c12.47-11.28,19.58-30.31,27.56-45.11S558.69,687.12,578.5,662.07Z" transform="translate(-106 -87)"/><path class="cls-3" d="M572.43,594.26c1.85,22.64,3.92,45.24,6.07,67.81-24.14,16.6-32.86,25.74-40.8,40.48s-11.41,31.12-19.77,45.75C495.23,788,440.58,809.1,392.16,800s-88.08-45.56-101.62-88.59c-11.31-36-5.87-74.26-1.07-111.4,10.29-79.7,17.24-160.17,10.13-240.15s-9.89-141.35-53.75-211.07C369.35,150.3,486,160,603.73,125.69h.1l.09,0C541,271.36,528.85,442.9,572.06,594.29Z" transform="translate(-106 -87)"/><path class="cls-3" d="M578.77,664.17c0-.08,0,0,0,.29" transform="translate(-106 -87)"/><path class="cls-4" d="M559.61,1004.25c-14,6.27-29.58,8.92-45,11a679.3,679.3,0,0,1-207.91-4.76c-12.73-2.28-25.63-5-36.77-11.05s-28.53-24.42-17-35.82c19.82-17.4,46.17-28.6,73.64-31.2,8.89-.85,18-.84,26.47-3.43s16.44-8.53,17.76-16.52a16.54,16.54,0,0,0-.32-6.69c-2.18-9.28-10.59-18-10.14-27.7.49-10.39,10.55-17.89,18.42-25.46a27,27,0,0,0,4.71-6.21c4.66-8.25,6.22-19.48.58-25.73l.14-.56a165.89,165.89,0,0,0,27.08,3.21,170.43,170.43,0,0,0,41.55-3.74l.08.33c-5.43,6-4,17.25.32,25.7a28.12,28.12,0,0,0,5.25,7.27c7.88,7.56,17.94,15.07,18.42,25.45.52,11.24-10.74,21.07-10.67,32a17.65,17.65,0,0,0,.2,2.39c1.33,8,9.3,13.94,17.76,16.53s17.59,2.58,26.48,3.42c28.87,2.73,56.54,15,76.65,33.92h0C598,979.46,573.57,998,559.61,1004.25Z" transform="translate(-106 -87)"/><path class="cls-5" d="M252.85,963.58c-1,.88-2,1.79-3,2.72Z" transform="translate(-106 -87)"/><path class="cls-3" d="M587.24,966.56a.27.27,0,0,1-.07-.08" transform="translate(-106 -87)"/><path class="cls-3" d="M253,963.44l-.14.14" transform="translate(-106 -87)"/><path class="cls-3" d="M466.26,910.27l-.12,0" transform="translate(-106 -87)"/><path class="cls-3" d="M373.9,113.47l-.44,0" transform="translate(-106 -87)"/><path class="cls-3" d="M185.82,125.66s0,0,0,0" transform="translate(-106 -87)"/><path class="cls-3" d="M604,125.62l-.23.07" transform="translate(-106 -87)"/><path class="cls-3" d="M252.16,170.47l-2.53,0" transform="translate(-106 -87)"/><path class="cls-3" d="M578.77,661.89l-.27.18" transform="translate(-106 -87)"/><path class="cls-3" d="M252.16,170.47v0" transform="translate(-106 -87)"/><path class="cls-4" d="M574.35,273.7c-14.49,106.15-10.66,213.64-1.92,320.56l-.37,0c-43.21-151.39-31-322.93,31.86-468.57h0C589.33,172.09,580.88,225.84,574.35,273.7Z" transform="translate(-106 -87)"/><path class="cls-5" d="M602.67,124.87a2.71,2.71,0,0,0-.17.39l0,0,.15-.36v0a1.16,1.16,0,0,0-.18.56,1.11,1.11,0,0,0,0,.6,1.14,1.14,0,0,0,.27.51,1.31,1.31,0,0,0,.42.39l.36.15a1.55,1.55,0,0,0,.8,0l.36-.15a1.74,1.74,0,0,0,.54-.54c.06-.13.11-.26.16-.4l0,0-.15.36v0a1.12,1.12,0,0,0,.18-.56,1.22,1.22,0,0,0,0-.6,1.26,1.26,0,0,0-.27-.51,1.18,1.18,0,0,0-.42-.38l-.36-.15a1.55,1.55,0,0,0-.8,0l-.35.15a1.4,1.4,0,0,0-.54.54Z" transform="translate(-106 -87)"/></svg>